<svg xmlns="http://www.w3.org/2000/svg" version="1.1" xmlns:xlink="http://www.w3.org/1999/xlink" xmlns:svgjs="http://svgjs.dev/svgjs" width="1000" height="229" viewBox="0 0 1000 229"><g transform="matrix(1,0,0,1,0.1066666666666265,0.05463580393234224)"><svg viewBox="0 0 375 86" data-background-color="#ffffff" preserveAspectRatio="xMidYMid meet" height="229" width="1000" xmlns="http://www.w3.org/2000/svg" xmlns:xlink="http://www.w3.org/1999/xlink"><g id="tight-bounds" transform="matrix(1,0,0,1,-0.03976036071776434,-0.020497375488275793)"><svg viewBox="0 0 375.07952880859375 86.041015625" height="86.041015625" width="375.07952880859375"><g><svg></svg></g><g><svg viewBox="0 0 375.07952880859375 86.041015625" height="86.041015625" width="375.07952880859375"><g transform="matrix(1,0,0,1,-10.220239639282227,-82.08702087402344)"><path xmlns="http://www.w3.org/2000/svg" d="M10.22 165.113v-83.026h375.08v83.026h-221.08v-2.677h218.403v-77.672h-369.726v77.672h25.684l0 2.677z" fill="#7a98a6" fill-rule="nonzero" stroke="none" stroke-width="1" stroke-linecap="butt" stroke-linejoin="miter" stroke-miterlimit="10" stroke-dasharray="" stroke-dashoffset="0" font-family="none" font-weight="none" font-size="none" text-anchor="none" style="mix-blend-mode: normal" data-fill-palette-color="tertiary"></path><g><path xmlns="http://www.w3.org/2000/svg" d="M50.942 168.113v0c-0.807 0-1.537-0.186-2.188-0.559-0.652-0.372-1.166-0.88-1.543-1.521-0.379-0.642-0.578-1.366-0.599-2.173v0-7.497c0-0.145 0.044-0.259 0.133-0.341 0.087-0.083 0.198-0.124 0.333-0.124v0c0.145 0 0.259 0.041 0.341 0.124 0.083 0.083 0.124 0.197 0.124 0.341v0 4.843c0.331-0.538 0.795-0.967 1.391-1.288 0.594-0.321 1.263-0.481 2.008-0.482v0c0.828 0 1.571 0.188 2.229 0.565 0.656 0.379 1.173 0.894 1.552 1.546 0.377 0.652 0.565 1.392 0.565 2.22v0c0 0.828-0.188 1.57-0.565 2.225-0.379 0.658-0.896 1.175-1.552 1.552-0.658 0.379-1.401 0.568-2.229 0.569zM50.942 167.243v0c0.652 0 1.234-0.153 1.748-0.459 0.511-0.304 0.917-0.718 1.217-1.242 0.3-0.521 0.45-1.113 0.45-1.775v0c0-0.662-0.15-1.252-0.45-1.77-0.3-0.517-0.706-0.929-1.217-1.235-0.513-0.304-1.096-0.456-1.748-0.456v0c-0.642 0-1.221 0.152-1.738 0.456-0.517 0.306-0.923 0.718-1.217 1.235-0.296 0.517-0.444 1.107-0.444 1.77v0c0 0.662 0.148 1.254 0.444 1.775 0.294 0.524 0.699 0.937 1.217 1.242 0.517 0.306 1.097 0.459 1.738 0.459zM61.388 168.128v0c-0.745 0-1.412-0.153-2.002-0.459-0.59-0.304-1.057-0.751-1.403-1.341-0.348-0.59-0.521-1.309-0.522-2.158v0-4.175c0-0.135 0.044-0.246 0.133-0.335 0.087-0.087 0.198-0.13 0.333-0.13v0c0.135 0 0.246 0.043 0.335 0.13 0.087 0.089 0.13 0.201 0.13 0.335v0 4.175c0 0.673 0.132 1.233 0.398 1.683 0.263 0.451 0.62 0.787 1.071 1.009 0.449 0.224 0.958 0.335 1.527 0.335v0c0.559 0 1.061-0.109 1.505-0.326 0.445-0.217 0.797-0.51 1.056-0.879 0.259-0.366 0.388-0.782 0.388-1.247v0h0.776c-0.041 0.642-0.233 1.218-0.575 1.729-0.341 0.513-0.783 0.918-1.325 1.213-0.544 0.294-1.153 0.441-1.825 0.441zM64.802 168.019v0c-0.135 0-0.245-0.044-0.332-0.133-0.089-0.087-0.133-0.198-0.133-0.332v0-7.559c0-0.145 0.044-0.259 0.133-0.341 0.087-0.083 0.198-0.124 0.332-0.124v0c0.145 0 0.259 0.041 0.342 0.124 0.083 0.083 0.124 0.197 0.124 0.341v0 7.559c0 0.135-0.041 0.245-0.124 0.332-0.083 0.089-0.197 0.133-0.342 0.133zM79.749 168.019v0c-0.135 0-0.246-0.044-0.335-0.133-0.087-0.087-0.13-0.198-0.131-0.332v0-4.486c0-0.797-0.21-1.449-0.63-1.955-0.418-0.507-0.963-0.761-1.636-0.761v0c-0.714 0-1.296 0.235-1.747 0.705-0.449 0.472-0.663 1.106-0.643 1.903v0h-0.931c0.021-0.714 0.176-1.335 0.465-1.863 0.29-0.528 0.683-0.94 1.18-1.235 0.497-0.294 1.055-0.441 1.676-0.441v0c0.631 0 1.185 0.155 1.661 0.466 0.476 0.31 0.851 0.74 1.124 1.288 0.275 0.548 0.413 1.18 0.412 1.893v0 4.486c0 0.135-0.041 0.245-0.124 0.332-0.083 0.089-0.197 0.133-0.341 0.133zM68.527 168.019v0c-0.135 0-0.246-0.044-0.335-0.133-0.087-0.087-0.13-0.198-0.13-0.332v0-7.559c0-0.145 0.043-0.259 0.13-0.341 0.089-0.083 0.201-0.124 0.335-0.124v0c0.145 0 0.259 0.041 0.342 0.124 0.083 0.083 0.124 0.197 0.124 0.341v0 7.559c0 0.135-0.041 0.245-0.124 0.332-0.083 0.089-0.197 0.133-0.342 0.133zM74.161 168.019v0c-0.135 0-0.246-0.044-0.335-0.133-0.087-0.087-0.13-0.198-0.13-0.332v0-4.486c0-0.797-0.21-1.449-0.63-1.955-0.418-0.507-0.963-0.761-1.636-0.761v0c-0.714 0-1.299 0.228-1.754 0.683-0.455 0.455-0.683 1.045-0.683 1.769v0h-0.776c0.031-0.662 0.189-1.247 0.475-1.753 0.284-0.507 0.663-0.905 1.139-1.196 0.476-0.29 1.009-0.435 1.599-0.434v0c0.631 0 1.185 0.155 1.66 0.465 0.476 0.31 0.851 0.74 1.124 1.289 0.275 0.548 0.413 1.18 0.413 1.893v0 4.486c0 0.135-0.041 0.245-0.124 0.332-0.083 0.089-0.197 0.133-0.342 0.133zM86.609 168.113v0c-0.807 0-1.528-0.191-2.164-0.575-0.637-0.383-1.139-0.9-1.505-1.552-0.368-0.652-0.553-1.387-0.553-2.204v0c0-0.828 0.171-1.568 0.513-2.219 0.341-0.652 0.812-1.167 1.412-1.546 0.6-0.377 1.288-0.565 2.064-0.565v0c0.662 0 1.268 0.126 1.816 0.379 0.548 0.255 1.024 0.64 1.428 1.157v0c0.083 0.103 0.114 0.212 0.093 0.326-0.021 0.114-0.088 0.207-0.202 0.28v0c-0.093 0.072-0.197 0.1-0.31 0.084-0.114-0.014-0.212-0.073-0.295-0.177v0c-0.662-0.786-1.506-1.18-2.53-1.18v0c-0.61 0-1.146 0.15-1.608 0.45-0.459 0.3-0.816 0.709-1.071 1.226-0.252 0.517-0.379 1.112-0.378 1.785v0c0 0.652 0.14 1.239 0.419 1.76 0.279 0.524 0.665 0.937 1.158 1.242 0.49 0.306 1.062 0.459 1.713 0.459v0c0.424 0 0.825-0.062 1.201-0.186 0.379-0.124 0.708-0.316 0.987-0.574v0c0.093-0.083 0.197-0.129 0.311-0.14 0.114-0.01 0.212 0.026 0.295 0.109v0c0.103 0.093 0.158 0.199 0.164 0.316 0.004 0.12-0.04 0.221-0.133 0.305v0c-0.755 0.693-1.697 1.04-2.825 1.039zM99.398 168.019v0c-0.135 0-0.245-0.044-0.332-0.133-0.089-0.087-0.133-0.198-0.133-0.332v0-4.175c0-0.683-0.131-1.247-0.395-1.692-0.265-0.445-0.622-0.779-1.071-1.003-0.451-0.221-0.961-0.332-1.53-0.332v0c-0.559 0-1.061 0.106-1.505 0.317-0.445 0.213-0.797 0.506-1.056 0.878-0.259 0.372-0.388 0.792-0.388 1.257v0h-0.776c0.041-0.642 0.233-1.219 0.574-1.732 0.341-0.511 0.786-0.915 1.335-1.21 0.548-0.294 1.154-0.441 1.816-0.441v0c0.745 0 1.415 0.152 2.012 0.456 0.594 0.306 1.062 0.751 1.403 1.335 0.341 0.586 0.512 1.308 0.512 2.167v0 4.175c0 0.135-0.043 0.245-0.131 0.332-0.089 0.089-0.201 0.133-0.335 0.133zM92.522 168.019v0c-0.135 0-0.245-0.044-0.332-0.133-0.089-0.087-0.133-0.198-0.133-0.332v0-7.559c0-0.145 0.044-0.259 0.133-0.341 0.087-0.083 0.198-0.124 0.332-0.124v0c0.145 0 0.259 0.041 0.342 0.124 0.083 0.083 0.124 0.197 0.124 0.341v0 7.559c0 0.135-0.041 0.245-0.124 0.332-0.083 0.089-0.197 0.133-0.342 0.133zM92.522 164.294v0c-0.135 0-0.245-0.044-0.332-0.133-0.089-0.087-0.133-0.198-0.133-0.332v0-7.466c0-0.145 0.044-0.259 0.133-0.341 0.087-0.083 0.198-0.124 0.332-0.124v0c0.145 0 0.259 0.041 0.342 0.124 0.083 0.083 0.124 0.197 0.124 0.341v0 7.466c0 0.135-0.041 0.245-0.124 0.332-0.083 0.089-0.197 0.133-0.342 0.133zM103.278 168.019v0c-0.135 0-0.245-0.044-0.332-0.133-0.089-0.087-0.133-0.198-0.133-0.332v0-7.559c0-0.145 0.044-0.259 0.133-0.341 0.087-0.083 0.198-0.124 0.332-0.124v0c0.145 0 0.259 0.041 0.342 0.124 0.083 0.083 0.124 0.197 0.124 0.341v0 7.559c0 0.135-0.041 0.245-0.124 0.332-0.083 0.089-0.197 0.133-0.342 0.133zM103.263 157.745v0c-0.197 0-0.364-0.069-0.503-0.208-0.141-0.141-0.211-0.315-0.211-0.522v0c0-0.238 0.076-0.417 0.226-0.537 0.149-0.118 0.317-0.177 0.503-0.177v0c0.176 0 0.339 0.059 0.491 0.177 0.149 0.12 0.224 0.299 0.223 0.537v0c0 0.207-0.069 0.381-0.208 0.522-0.141 0.139-0.315 0.208-0.521 0.208zM113.165 160.197l-5.696 5.168-0.559-0.62 5.681-5.169c0.103-0.083 0.205-0.124 0.304-0.124 0.097 0 0.192 0.052 0.286 0.155v0c0.093 0.103 0.14 0.207 0.139 0.311 0 0.103-0.052 0.197-0.155 0.279zM107.314 168.019v0c-0.135 0-0.245-0.044-0.332-0.133-0.089-0.087-0.133-0.198-0.134-0.332v0-11.191c0-0.145 0.044-0.259 0.134-0.341 0.087-0.083 0.198-0.124 0.332-0.124v0c0.145 0 0.259 0.041 0.341 0.124 0.083 0.083 0.124 0.197 0.124 0.341v0 11.191c0 0.135-0.041 0.245-0.124 0.332-0.083 0.089-0.197 0.133-0.341 0.133zM113.196 167.942v0c-0.103 0.093-0.209 0.132-0.317 0.118-0.11-0.017-0.206-0.077-0.288-0.18v0l-3.679-4.501 0.668-0.544 3.678 4.501c0.083 0.103 0.122 0.207 0.118 0.311-0.006 0.103-0.066 0.202-0.18 0.295zM116.533 168.019v0c-0.135 0-0.245-0.044-0.332-0.133-0.089-0.087-0.133-0.198-0.134-0.332v0-7.559c0-0.145 0.044-0.259 0.134-0.341 0.087-0.083 0.198-0.124 0.332-0.124v0c0.145 0 0.259 0.041 0.342 0.124 0.083 0.083 0.124 0.197 0.124 0.341v0 7.559c0 0.135-0.041 0.245-0.124 0.332-0.083 0.089-0.197 0.133-0.342 0.133zM116.518 157.745v0c-0.197 0-0.365-0.069-0.506-0.208-0.139-0.141-0.208-0.315-0.208-0.522v0c0-0.238 0.076-0.417 0.226-0.537 0.149-0.118 0.317-0.177 0.503-0.177v0c0.176 0 0.338 0.059 0.487 0.177 0.151 0.12 0.227 0.299 0.227 0.537v0c0 0.207-0.069 0.381-0.208 0.522-0.141 0.139-0.315 0.208-0.521 0.208zM124.433 168.113v0c-0.807 0-1.537-0.186-2.188-0.559-0.652-0.372-1.166-0.88-1.543-1.521-0.379-0.642-0.578-1.366-0.599-2.173v0-7.497c0-0.145 0.044-0.259 0.133-0.341 0.087-0.083 0.198-0.124 0.332-0.124v0c0.145 0 0.259 0.041 0.342 0.124 0.083 0.083 0.124 0.197 0.124 0.341v0 4.843c0.331-0.538 0.794-0.967 1.388-1.288 0.596-0.321 1.266-0.481 2.011-0.482v0c0.828 0 1.571 0.188 2.229 0.565 0.656 0.379 1.173 0.894 1.552 1.546 0.377 0.652 0.565 1.392 0.565 2.22v0c0 0.828-0.188 1.57-0.565 2.225-0.379 0.658-0.896 1.175-1.552 1.552-0.658 0.379-1.401 0.568-2.229 0.569zM124.433 167.243v0c0.652 0 1.233-0.153 1.745-0.459 0.513-0.304 0.92-0.718 1.22-1.242 0.3-0.521 0.45-1.113 0.45-1.775v0c0-0.662-0.15-1.252-0.45-1.77-0.3-0.517-0.707-0.929-1.22-1.235-0.511-0.304-1.093-0.456-1.745-0.456v0c-0.642 0-1.221 0.152-1.738 0.456-0.517 0.306-0.923 0.718-1.217 1.235-0.296 0.517-0.444 1.107-0.444 1.77v0c0 0.662 0.148 1.254 0.444 1.775 0.294 0.524 0.699 0.937 1.217 1.242 0.517 0.306 1.097 0.459 1.738 0.459zM134.987 168.113v0c-0.828 0-1.571-0.189-2.229-0.569-0.656-0.377-1.173-0.894-1.552-1.552-0.377-0.656-0.565-1.393-0.565-2.21v0c0-0.828 0.188-1.571 0.565-2.229 0.379-0.656 0.896-1.173 1.552-1.552 0.658-0.377 1.401-0.565 2.229-0.565v0c0.828 0 1.568 0.188 2.22 0.565 0.652 0.379 1.166 0.896 1.542 1.552 0.379 0.658 0.568 1.401 0.569 2.229v0c0 0.817-0.189 1.554-0.569 2.21-0.377 0.658-0.891 1.175-1.542 1.552-0.652 0.379-1.392 0.568-2.22 0.569zM134.987 167.243v0c0.652 0 1.233-0.153 1.745-0.459 0.513-0.304 0.917-0.718 1.21-1.242 0.296-0.521 0.444-1.113 0.444-1.775v0c0-0.652-0.148-1.24-0.444-1.763-0.294-0.521-0.697-0.935-1.21-1.242-0.511-0.304-1.093-0.456-1.745-0.456v0c-0.642 0-1.221 0.152-1.738 0.456-0.517 0.306-0.926 0.72-1.226 1.242-0.3 0.524-0.45 1.116-0.45 1.778v0c0 0.652 0.15 1.239 0.45 1.76 0.3 0.524 0.709 0.937 1.226 1.242 0.517 0.306 1.097 0.459 1.738 0.459zM144.533 168.113v0c-0.538 0-1.102-0.098-1.692-0.295-0.59-0.197-1.081-0.528-1.475-0.994v0c-0.083-0.103-0.117-0.215-0.102-0.335 0.017-0.118 0.082-0.218 0.195-0.301v0c0.103-0.072 0.215-0.098 0.336-0.078 0.118 0.021 0.213 0.078 0.285 0.171v0c0.3 0.352 0.664 0.597 1.093 0.736 0.43 0.141 0.899 0.211 1.406 0.211v0c0.869 0 1.485-0.155 1.847-0.466 0.362-0.31 0.543-0.673 0.543-1.086v0c0-0.404-0.195-0.738-0.583-1.003-0.387-0.263-0.984-0.451-1.791-0.565v0c-1.035-0.145-1.8-0.424-2.297-0.838-0.497-0.414-0.745-0.895-0.745-1.443v0c0-0.517 0.129-0.955 0.388-1.313 0.259-0.356 0.613-0.625 1.061-0.808 0.451-0.18 0.966-0.27 1.546-0.27v0c0.704 0 1.299 0.126 1.785 0.379 0.486 0.255 0.88 0.594 1.18 1.018v0c0.083 0.103 0.111 0.214 0.083 0.332-0.025 0.12-0.105 0.216-0.239 0.289v0c-0.103 0.052-0.212 0.067-0.326 0.047-0.114-0.021-0.212-0.083-0.295-0.187v0c-0.259-0.331-0.572-0.583-0.94-0.754-0.366-0.17-0.793-0.255-1.279-0.254v0c-0.652 0-1.159 0.14-1.521 0.419-0.362 0.279-0.543 0.616-0.543 1.008v0c0 0.269 0.074 0.504 0.223 0.705 0.151 0.203 0.397 0.375 0.739 0.515 0.341 0.139 0.797 0.249 1.366 0.333v0c0.776 0.103 1.389 0.279 1.838 0.527 0.451 0.248 0.772 0.535 0.962 0.86 0.192 0.327 0.289 0.677 0.289 1.049v0c0 0.486-0.155 0.911-0.466 1.273-0.31 0.362-0.719 0.638-1.226 0.829-0.507 0.192-1.055 0.289-1.645 0.289zM152.852 168.113v0c-0.538 0-1.102-0.098-1.692-0.295-0.59-0.197-1.081-0.528-1.475-0.994v0c-0.083-0.103-0.117-0.215-0.102-0.335 0.017-0.118 0.082-0.218 0.196-0.301v0c0.103-0.072 0.215-0.098 0.335-0.078 0.118 0.021 0.213 0.078 0.285 0.171v0c0.3 0.352 0.665 0.597 1.096 0.736 0.428 0.141 0.896 0.211 1.403 0.211v0c0.869 0 1.485-0.155 1.847-0.466 0.362-0.31 0.543-0.673 0.543-1.086v0c0-0.404-0.195-0.738-0.583-1.003-0.387-0.263-0.984-0.451-1.791-0.565v0c-1.035-0.145-1.8-0.424-2.297-0.838-0.497-0.414-0.745-0.895-0.745-1.443v0c0-0.517 0.129-0.955 0.388-1.313 0.259-0.356 0.613-0.625 1.061-0.808 0.451-0.18 0.966-0.27 1.546-0.27v0c0.704 0 1.299 0.126 1.785 0.379 0.486 0.255 0.88 0.594 1.18 1.018v0c0.083 0.103 0.112 0.214 0.087 0.332-0.027 0.12-0.108 0.216-0.243 0.289v0c-0.103 0.052-0.212 0.067-0.325 0.047-0.114-0.021-0.212-0.083-0.295-0.187v0c-0.259-0.331-0.572-0.583-0.941-0.754-0.366-0.17-0.793-0.255-1.279-0.254v0c-0.652 0-1.159 0.14-1.521 0.419-0.362 0.279-0.543 0.616-0.543 1.008v0c0 0.269 0.074 0.504 0.223 0.705 0.151 0.203 0.397 0.375 0.739 0.515 0.341 0.139 0.797 0.249 1.366 0.333v0c0.776 0.103 1.389 0.279 1.838 0.527 0.451 0.248 0.772 0.535 0.962 0.86 0.192 0.327 0.289 0.677 0.289 1.049v0c0 0.486-0.155 0.911-0.466 1.273-0.31 0.362-0.719 0.638-1.226 0.829-0.507 0.192-1.055 0.289-1.645 0.289z" fill="#060606" fill-rule="nonzero" stroke="none" stroke-width="1" stroke-linecap="butt" stroke-linejoin="miter" stroke-miterlimit="10" stroke-dasharray="" stroke-dashoffset="0" font-family="none" font-weight="none" font-size="none" text-anchor="none" style="mix-blend-mode: normal" data-fill-palette-color="secondary"></path></g></g><g transform="matrix(1,0,0,1,29.331764404296877,28.17782962675486)"><svg viewBox="0 0 316.416 29.68535637149028" height="29.68535637149028" width="316.416"><g><svg viewBox="0 0 316.416 29.68535637149028" height="29.68535637149028" width="316.416"><g><svg viewBox="0 0 316.416 29.68535637149028" height="29.68535637149028" width="316.416"><g id="textblocktransform"><svg viewBox="0 0 316.416 29.68535637149028" height="29.68535637149028" width="316.416" id="textblock"><g><svg viewBox="0 0 316.416 29.68535637149028" height="29.68535637149028" width="316.416"><g transform="matrix(1,0,0,1,0,0)"><svg width="316.416" viewBox="3.6500000953674316 -34.349998474121094 370.3699951171875 34.75" height="29.68535637149028" data-palette-color="#59c5f4"><path d="M29.1-33.7L29.1 0 23.95 0 23.95-14.75 8.8-14.75 8.8 0 3.65 0 3.65-33.7 8.8-33.7 8.8-19.2 23.95-19.2 23.95-33.7 29.1-33.7ZM44.45-14.25L44.45-14.25 43.9-12.55 54.7-12.55 54.15-14.25Q52.25-20.15 51.05-24.03 49.85-27.9 49.6-28.85L49.6-28.85 49.35-29.8Q48.8-27.45 44.45-14.25ZM42.5-8.25L39.8 0 34.35 0 46-33.7 52.75-33.7 64.25 0 58.75 0 56.1-8.25 42.5-8.25ZM79-29.4L79-29.4 74.6-29.4 74.6-17.1 79.25-17.1Q82.45-17.1 84.1-18.78 85.75-20.45 85.75-23.25L85.75-23.25Q85.75-29.4 79-29.4ZM74.6-12.8L74.6 0 69.45 0 69.45-33.7 78.85-33.7Q84.65-33.7 87.8-30.88 90.95-28.05 90.95-23.2L90.95-23.2Q90.9-19.65 89.15-17.18 87.4-14.7 84.3-13.6L84.3-13.6 93.1 0 86.95 0 79.05-12.8 74.6-12.8ZM108.44 0L108.44 0 97.84 0 97.84-33.7 108.34-33.7Q115.84-33.7 120.64-29.05 125.44-24.4 125.44-17.2L125.44-17.2Q125.44-9.7 120.92-4.85 116.39 0 108.44 0ZM108.24-29.3L108.24-29.3 103.09-29.3 103.09-4.35 108.39-4.35Q114.14-4.35 117.14-7.95 120.14-11.55 120.14-17.2L120.14-17.2Q120.14-22.4 116.89-25.85 113.64-29.3 108.24-29.3ZM136.69-33.7L136.69 0 131.59 0 131.59-33.7 136.69-33.7ZM156.34-16.7L169.44 0 162.94 0 150.19-16.65 162.44-33.7 168.69-33.7 156.34-16.7ZM149.54-33.7L149.54 0 144.39 0 144.39-33.7 149.54-33.7ZM205.93-9.2L205.93-9.2Q205.93-4.75 202.78-2.2 199.63 0.35 194.63 0.35L194.63 0.35Q189.08 0.35 185.43-1.8L185.43-1.8 185.43-7.15Q189.38-4.2 194.58-4.2L194.58-4.2Q197.33-4.2 198.93-5.48 200.53-6.75 200.53-9L200.53-9Q200.53-10.35 199.58-11.48 198.63-12.6 197.53-13.18 196.43-13.75 194.23-14.75L194.23-14.75Q192.93-15.35 192.41-15.6 191.88-15.85 190.68-16.5 189.48-17.15 188.91-17.6 188.33-18.05 187.48-18.85 186.63-19.65 186.26-20.45 185.88-21.25 185.56-22.33 185.23-23.4 185.23-24.65L185.23-24.65Q185.23-28.95 188.36-31.45 191.48-33.95 196.43-33.95L196.43-33.95Q200.98-33.95 204.18-32.35L204.18-32.35 204.18-27.25Q200.83-29.35 196.58-29.35L196.58-29.35Q193.83-29.35 192.26-28.13 190.68-26.9 190.68-24.9 190.68-22.9 192.23-21.7 193.78-20.5 196.98-19.1L196.98-19.1Q199.08-18.2 200.26-17.55 201.43-16.9 202.96-15.73 204.48-14.55 205.21-12.93 205.93-11.3 205.93-9.2ZM237.48-29.63Q241.63-24.9 241.63-17 241.63-9.1 237.46-4.35 233.28 0.4 226.18 0.4L226.18 0.4Q219.13 0.4 214.91-4.35 210.68-9.1 210.68-17L210.68-17Q210.68-24.85 214.88-29.6 219.08-34.35 226.13-34.35L226.13-34.35Q233.33-34.35 237.48-29.63ZM218.76-26.18Q216.08-22.8 216.08-17 216.08-11.2 218.83-7.8 221.58-4.4 226.18-4.4L226.18-4.4Q230.93-4.4 233.58-7.75 236.23-11.1 236.23-17L236.23-17Q236.23-22.85 233.56-26.2 230.88-29.55 226.13-29.55L226.13-29.55Q221.43-29.55 218.76-26.18ZM266.53-4.55L266.53 0 247.58 0 247.58-33.7 252.73-33.7 252.73-4.55 266.53-4.55ZM279.57-14.25L279.57-14.25 279.03-12.55 289.82-12.55 289.28-14.25Q287.38-20.15 286.18-24.03 284.98-27.9 284.73-28.85L284.73-28.85 284.48-29.8Q283.93-27.45 279.57-14.25ZM277.63-8.25L274.93 0 269.48 0 281.13-33.7 287.88-33.7 299.38 0 293.88 0 291.23-8.25 277.63-8.25ZM309.72-14.1L309.72 0 304.57 0 304.57-33.7 310.67-33.7 318.97-19.6Q321.27-15.65 323.15-12.3 325.02-8.95 325.72-7.6L325.72-7.6 326.42-6.2Q326.12-10.75 326.12-19.55L326.12-19.55 326.12-33.7 331.27-33.7 331.27 0 325.17 0 316.82-14.05Q314.57-17.85 312.7-21.23 310.82-24.6 310.07-26.1L310.07-26.1 309.32-27.55Q309.72-22.55 309.72-14.1L309.72-14.1ZM350.52-16.7L363.62 0 357.12 0 344.37-16.65 356.62-33.7 362.87-33.7 350.52-16.7ZM343.72-33.7L343.72 0 338.57 0 338.57-33.7 343.72-33.7ZM374.02-33.7L374.02 0 368.92 0 368.92-33.7 374.02-33.7Z" opacity="1" transform="matrix(1,0,0,1,0,0)" fill="#59c5f4" class="wordmark-text-0" data-fill-palette-color="primary" id="text-0"></path></svg></g></svg></g></svg></g></svg></g></svg></g></svg></g></svg></g><defs></defs></svg><rect width="375.07952880859375" height="86.041015625" fill="none" stroke="none" visibility="hidden"></rect></g></svg></g></svg>